<?xml version="1.0" standalone="no"?>
<!DOCTYPE svg PUBLIC "-//W3C//DTD SVG 20010904//EN"
 "http://www.w3.org/TR/2001/REC-SVG-20010904/DTD/svg10.dtd">
<svg version="1.0" xmlns="http://www.w3.org/2000/svg"
 width="1080.000000pt" height="1080.000000pt" viewBox="0 0 1080.000000 1080.000000"
 preserveAspectRatio="xMidYMid meet">
<metadata>
Created by potrace 1.14, written by Peter Selinger 2001-2017
</metadata>
<g transform="translate(0.000000,1080.000000) scale(0.100000,-0.100000)"
fill="#000000" stroke="none">
<path d="M5105 9843 c-339 -22 -821 -122 -1165 -241 -446 -154 -894 -398
-1269 -690 -317 -247 -645 -588 -878 -912 -442 -616 -708 -1297 -814 -2085
-26 -196 -36 -638 -20 -855 44 -572 209 -1176 458 -1674 599 -1198 1696 -2063
2988 -2356 383 -87 610 -113 990 -114 365 -1 633 28 975 104 206 47 212 48
400 107 595 187 1146 504 1630 938 535 480 966 1124 1205 1800 100 281 194
674 229 955 98 784 -9 1561 -321 2315 -59 143 -211 440 -298 580 -494 801
-1220 1427 -2070 1785 -422 178 -938 303 -1399 340 -117 9 -518 11 -641 3z
m785 -147 c589 -71 1153 -254 1660 -541 581 -328 1117 -833 1485 -1399 656
-1011 866 -2247 579 -3409 -161 -653 -465 -1252 -893 -1762 -176 -210 -482
-502 -685 -654 -665 -497 -1336 -764 -2188 -868 -200 -24 -675 -24 -878 0
-681 83 -1252 273 -1790 599 -1062 642 -1784 1677 -2024 2903 -79 405 -97 910
-47 1330 101 845 436 1619 990 2285 463 556 1104 1010 1786 1264 383 143 762
228 1190 266 153 13 657 4 815 -14z"/>
<path d="M7230 9014 c-25 -9 -73 -34 -105 -54 -16 -10 -46 -19 -65 -19 -54 -2
-66 -13 -50 -50 7 -17 10 -38 6 -47 -3 -8 1 -22 9 -30 8 -9 15 -32 15 -52 0
-20 7 -46 15 -56 8 -11 15 -30 15 -42 0 -29 13 -37 50 -29 34 7 37 20 15 61
-8 16 -15 38 -15 49 0 11 -9 47 -20 79 -11 33 -19 60 -18 62 2 1 10 -3 18 -10
16 -12 27 -30 69 -111 39 -75 57 -97 77 -93 27 5 41 35 26 56 -41 57 -39 78 8
85 31 4 60 57 60 107 -1 58 -62 110 -110 94z m28 -102 c3 -24 -2 -34 -23 -48
-22 -15 -28 -15 -40 -3 -7 8 -15 25 -17 38 -2 19 2 25 21 26 14 1 27 7 29 14
7 22 27 5 30 -27z"/>
<path d="M4980 8985 c0 -9 -9 -15 -25 -15 -20 0 -26 -7 -35 -41 -7 -26 -8 -55
-3 -78 l9 -36 68 -3 c39 -2 74 2 80 8 15 15 38 12 66 -9 l24 -19 -27 -13 c-15
-7 -27 -18 -27 -26 0 -15 -46 -18 -55 -3 -3 6 -19 10 -36 10 -24 0 -29 -4 -29
-22 1 -43 20 -56 78 -50 29 2 55 9 58 13 3 5 13 9 22 9 9 0 27 11 40 25 19 19
23 33 20 72 -3 46 -4 48 -56 74 -50 27 -51 28 -31 42 18 13 19 18 7 36 -16 26
-31 32 -95 37 -42 3 -53 1 -53 -11z m100 -55 c21 -6 22 -8 8 -14 -9 -4 -18
-16 -21 -26 -7 -27 -67 -38 -84 -14 -11 15 -10 21 9 41 22 24 44 27 88 13z"/>
<path d="M5493 8978 c-6 -7 -13 -58 -17 -113 -13 -182 -14 -167 17 -176 22 -6
32 -3 45 11 30 33 40 46 56 78 9 17 25 36 35 41 17 10 18 5 13 -84 -5 -97 3
-125 35 -125 17 0 52 39 53 57 0 7 9 17 19 23 11 5 23 20 27 32 8 27 42 78 53
78 3 0 5 -31 3 -69 -4 -60 -1 -74 18 -101 28 -40 74 -63 132 -67 40 -2 52 2
78 26 66 60 93 160 53 199 -7 7 -13 19 -13 25 0 36 -147 96 -164 68 -4 -6 -15
-11 -24 -11 -10 0 -26 -10 -37 -22 l-20 -23 -3 38 c-2 20 -8 37 -14 37 -14 0
-88 -80 -88 -95 0 -6 -12 -22 -26 -36 l-26 -24 3 95 4 95 -33 3 c-22 2 -34 -2
-38 -12 -3 -9 -12 -16 -20 -16 -8 0 -14 -8 -14 -19 0 -21 -48 -73 -61 -65 -14
8 -10 66 6 98 24 45 20 66 -14 66 -16 0 -33 -6 -38 -12z m504 -159 c6 -6 22
-17 35 -23 23 -12 38 -56 19 -56 -7 0 -9 -14 -5 -40 5 -32 3 -40 -9 -40 -8 0
-22 -11 -31 -25 -20 -31 -38 -31 -76 -4 -38 28 -49 86 -25 134 9 19 22 35 29
35 8 0 16 7 20 15 6 18 27 20 43 4z"/>
<path d="M3376 8968 c-6 -21 -26 -203 -26 -241 0 -29 4 -36 27 -41 30 -8 39
-1 92 75 23 34 45 54 57 54 17 0 18 -6 15 -45 -10 -95 -7 -132 11 -143 21 -14
65 7 74 35 3 10 32 55 65 99 51 69 59 85 54 110 -5 22 -12 29 -31 29 -18 0
-24 -5 -24 -21 0 -25 -18 -61 -36 -72 -8 -4 -14 -14 -14 -21 0 -7 -9 -21 -19
-30 -28 -25 -35 -6 -27 73 8 82 2 101 -33 101 -25 -1 -71 -30 -71 -46 0 -16
-46 -74 -59 -74 -10 0 -12 18 -10 83 4 79 3 82 -19 85 -12 2 -24 -3 -26 -10z"/>
<path d="M4816 8911 c-5 -8 4 -62 24 -141 5 -19 14 -56 20 -82 11 -43 14 -48
40 -48 38 0 45 14 26 52 -9 17 -16 42 -16 55 0 13 -4 33 -10 43 -5 10 -12 37
-15 60 -3 24 -10 49 -16 57 -13 15 -45 18 -53 4z"/>
<path d="M6912 8849 l3 -62 -39 -13 c-54 -19 -76 -11 -76 28 0 54 -21 98 -47
98 -32 0 -33 -16 -9 -160 24 -139 30 -155 51 -155 17 0 20 8 23 58 3 49 6 57
23 57 11 0 22 7 25 15 9 21 47 19 61 -5 7 -10 16 -38 19 -60 6 -37 9 -41 33
-38 20 2 25 8 23 23 -2 11 -4 43 -5 70 -1 28 -5 52 -9 56 -4 3 -10 27 -14 55
-10 88 -12 94 -40 94 -24 0 -25 -2 -22 -61z"/>
<path d="M4605 8883 c-23 -5 -97 -79 -108 -106 -14 -36 -32 -12 -29 37 l3 46
-39 0 c-39 0 -40 -1 -46 -42 -4 -27 -3 -44 5 -48 9 -6 27 -112 29 -171 1 -39
80 -33 80 6 0 13 -7 26 -15 29 -14 5 -14 9 0 36 21 41 54 37 76 -8 23 -46 61
-72 103 -72 20 0 36 4 36 9 0 6 -29 43 -65 84 -36 41 -65 78 -65 83 0 5 20 29
45 54 61 62 58 79 -10 63z"/>
<path d="M3825 8865 c-16 -7 -41 -25 -54 -39 -22 -23 -25 -36 -25 -100 -1 -65
2 -77 23 -100 13 -14 46 -33 73 -42 42 -14 55 -14 92 -3 56 16 68 26 89 68 31
63 17 157 -28 191 -24 18 -92 40 -120 39 -11 0 -33 -7 -50 -14z m95 -50 c0 -8
9 -15 20 -15 28 0 43 -35 36 -85 -11 -73 -66 -110 -125 -84 -16 7 -35 24 -40
37 -15 31 -14 94 2 116 28 38 107 61 107 31z"/>
<path d="M4095 8714 c2 -80 5 -148 9 -151 3 -3 17 -2 31 1 23 6 26 11 21 34
-9 40 7 87 29 87 11 0 38 -25 65 -60 38 -49 53 -61 80 -63 32 -3 33 -3 26 30
-3 18 -12 38 -19 43 -6 6 -21 21 -32 33 l-19 23 28 23 c24 18 28 29 28 66 -1
68 -23 80 -148 80 l-101 0 2 -146z m175 77 c19 -36 3 -49 -58 -47 -46 1 -57 4
-60 19 -7 37 5 47 57 47 39 0 53 -4 61 -19z"/>
<path d="M6176 8844 c-3 -9 -6 -76 -6 -150 l0 -134 30 0 c30 0 30 1 30 54 0
30 4 57 9 60 10 7 61 -16 61 -27 0 -8 46 -70 82 -110 19 -21 38 -15 38 12 0
31 -40 111 -55 111 -24 0 -17 20 15 50 25 23 30 36 30 72 0 41 -3 46 -35 61
-49 23 -190 24 -199 1z m149 -46 c58 -26 6 -87 -60 -70 -30 8 -43 36 -31 68 7
17 55 18 91 2z"/>
<path d="M6479 8829 c-33 -36 -36 -55 -11 -85 20 -25 77 -54 104 -54 57 0 82
-61 33 -80 -30 -11 -63 0 -88 30 -20 24 -50 23 -55 -1 -2 -9 9 -30 23 -48 25
-29 31 -31 94 -31 57 0 71 3 88 23 24 26 36 68 28 100 -7 25 -51 52 -102 62
-18 4 -33 11 -33 16 0 5 -6 9 -14 9 -15 0 -28 24 -19 34 10 10 83 7 83 -4 0
-16 67 -12 73 5 11 28 -45 55 -113 55 -56 0 -65 -3 -91 -31z"/>
<path d="M5270 8663 c-33 -10 -65 -29 -73 -40 -4 -7 -16 -13 -27 -13 -10 0
-20 -4 -22 -9 -5 -13 -203 -111 -224 -111 -11 0 -28 -6 -39 -13 -55 -37 -259
-82 -415 -91 -41 -2 -109 -9 -150 -14 -82 -11 -248 -7 -323 8 -26 6 -70 10
-97 10 -117 0 -450 97 -602 176 -27 13 -55 24 -63 24 -8 0 -15 5 -15 10 0 25
-39 4 -123 -67 -51 -42 -94 -79 -97 -82 -3 -4 -36 -32 -75 -63 -38 -31 -83
-70 -99 -87 -17 -17 -34 -31 -39 -31 -10 0 -167 -151 -167 -161 0 -4 25 -33
56 -66 69 -71 182 -210 197 -240 5 -13 13 -23 17 -23 4 0 15 -18 25 -40 10
-22 22 -40 27 -40 4 0 8 -8 8 -18 0 -10 6 -26 13 -37 8 -11 17 -29 20 -40 3
-11 13 -40 23 -65 9 -25 21 -63 25 -85 54 -261 54 -341 -1 -830 -5 -44 -16
-111 -25 -150 -16 -72 -22 -101 -50 -240 -9 -44 -20 -100 -25 -125 -5 -25 -13
-68 -19 -97 -5 -28 -15 -62 -22 -75 -7 -13 -12 -29 -10 -36 3 -17 -29 -203
-37 -217 -4 -5 -10 -39 -14 -75 -4 -36 -14 -101 -24 -145 -42 -203 -61 -548
-45 -822 14 -247 19 -290 37 -330 8 -17 14 -42 14 -56 0 -14 5 -29 10 -32 6
-3 10 -17 10 -31 0 -13 4 -32 9 -42 5 -9 33 -66 63 -127 87 -181 205 -327 343
-426 27 -19 44 -39 43 -48 -4 -21 -42 -26 -81 -11 -111 42 -168 68 -215 97
-29 18 -55 33 -58 33 -2 0 -19 10 -35 23 l-31 22 -19 -24 c-10 -13 -19 -31
-19 -40 0 -9 -9 -41 -21 -71 -20 -52 -25 -68 -48 -150 -5 -19 -15 -53 -21 -75
-6 -22 -15 -49 -20 -60 -4 -11 -16 -45 -26 -75 -9 -30 -20 -64 -25 -75 -4 -11
-10 -31 -12 -45 -3 -14 -12 -43 -20 -65 -14 -38 -14 -40 10 -62 13 -13 29 -23
35 -23 5 0 27 -9 47 -19 20 -10 63 -31 96 -46 33 -15 67 -31 75 -35 9 -4 30
-11 48 -15 18 -3 32 -11 32 -16 0 -5 11 -9 24 -9 14 0 28 -4 31 -10 3 -5 14
-10 23 -10 9 0 30 -7 46 -15 15 -8 39 -15 52 -15 12 0 26 -4 29 -10 3 -5 16
-10 28 -10 12 0 51 -11 87 -24 36 -13 83 -27 105 -32 31 -7 41 -14 43 -33 2
-13 -1 -33 -6 -45 -16 -35 -34 -108 -39 -157 -4 -39 -1 -50 19 -72 13 -14 36
-29 51 -32 15 -4 30 -11 33 -16 3 -5 25 -18 50 -29 24 -11 44 -25 44 -30 0 -6
9 -10 20 -10 11 0 28 -4 38 -9 73 -37 131 -61 148 -61 12 0 27 -7 34 -15 7 -8
25 -15 40 -15 14 0 30 -3 34 -7 10 -10 74 -31 118 -38 21 -4 40 -11 44 -16 3
-5 16 -9 29 -9 13 0 27 -4 30 -10 3 -5 15 -10 27 -10 11 0 34 -6 51 -14 18 -8
48 -17 67 -19 19 -3 64 -13 100 -22 144 -36 264 -56 445 -74 44 -5 125 -14
180 -20 142 -16 427 -29 445 -21 8 4 89 11 180 15 91 4 184 9 205 11 22 3 90
8 150 13 61 4 117 11 125 14 8 4 58 11 110 17 97 10 141 17 290 45 145 27 172
33 265 59 196 55 242 69 298 92 32 13 66 24 76 24 9 0 22 5 27 10 6 6 19 12
30 15 41 9 146 49 184 70 21 12 25 21 25 62 -1 51 -21 156 -35 185 -5 9 -12
39 -16 67 -8 60 5 81 48 81 16 0 45 7 65 15 19 8 43 15 53 15 10 0 23 7 30 15
7 8 18 14 24 13 10 -1 49 13 88 33 10 5 26 9 37 9 10 0 21 7 25 15 3 8 12 15
21 15 14 0 53 20 110 58 11 7 36 20 55 30 69 35 129 77 138 97 10 22 4 124 -8
140 -4 6 -11 26 -15 45 -3 19 -18 73 -31 120 -14 47 -30 103 -36 125 -6 22
-14 51 -18 65 -4 14 -14 50 -23 80 -21 75 -70 230 -72 230 -1 0 -15 -19 -30
-42 -37 -56 -178 -201 -212 -219 -16 -8 -32 -20 -36 -26 -4 -7 -17 -13 -27
-13 -11 0 -20 -3 -20 -8 0 -12 -91 -40 -158 -47 -58 -7 -64 -6 -60 11 2 10 17
25 33 34 16 8 34 20 40 26 5 7 34 28 63 47 54 37 225 213 275 283 59 85 117
177 134 215 9 21 20 39 25 39 4 0 8 8 8 18 0 10 4 22 8 27 5 6 17 37 27 70 11
33 23 64 27 70 4 5 8 19 8 30 0 12 3 25 7 29 15 15 72 256 73 306 0 15 6 32
13 39 17 17 17 695 -1 713 -7 7 -12 26 -12 43 -1 28 -20 130 -55 280 -7 33
-21 94 -30 135 -9 41 -23 93 -31 115 -7 22 -14 52 -14 67 0 15 -4 29 -9 32 -5
3 -12 23 -16 43 -4 21 -10 42 -13 48 -13 20 -32 80 -32 103 0 12 -4 22 -10 22
-5 0 -12 12 -16 28 -3 15 -10 36 -15 47 -12 26 -78 247 -90 305 -6 25 -14 81
-19 125 -6 44 -13 112 -18 150 -16 131 -14 388 3 508 9 62 20 121 24 132 5 11
16 47 26 80 19 69 80 195 101 211 8 6 14 16 14 22 0 6 35 47 78 92 42 46 78
88 80 94 3 12 -268 283 -368 368 -236 201 -263 221 -272 200 -6 -16 -115 -92
-131 -92 -9 0 -18 -4 -21 -9 -7 -10 -192 -101 -246 -120 -160 -57 -357 -85
-600 -85 -211 0 -299 7 -372 30 -26 8 -60 14 -77 14 -16 0 -33 5 -36 10 -3 6
-17 10 -30 10 -14 0 -50 12 -82 26 -59 26 -95 42 -148 64 -31 13 -35 14 -128
64 -62 33 -68 37 -139 79 -48 28 -52 29 -78 20z m80 -118 c22 -14 104 -58 183
-98 307 -158 484 -194 897 -184 207 5 235 8 355 37 72 17 159 40 195 52 90 28
302 133 330 163 45 47 39 51 309 -190 74 -66 158 -140 187 -165 29 -25 55 -51
58 -58 3 -8 -20 -44 -53 -83 -81 -97 -175 -286 -200 -404 -30 -139 -44 -312
-44 -520 1 -271 27 -419 121 -680 97 -268 104 -289 155 -490 26 -100 87 -366
106 -460 6 -27 17 -129 26 -225 12 -136 13 -201 5 -295 -10 -131 -63 -454 -85
-525 -42 -138 -92 -252 -163 -375 -77 -134 -287 -368 -397 -442 -57 -38 -292
-173 -302 -173 -3 0 -19 -6 -36 -14 -80 -36 -294 -91 -427 -111 -183 -27 -296
-46 -357 -60 -35 -8 -93 -22 -130 -30 -108 -24 -150 -37 -291 -86 -61 -21
-315 -141 -385 -181 -60 -35 -77 -35 -130 -1 -58 38 -111 67 -187 104 -36 17
-81 40 -101 50 -20 11 -42 19 -49 19 -7 0 -26 6 -43 14 -88 40 -468 147 -610
171 -43 8 -102 20 -130 28 -29 9 -99 27 -157 42 -138 36 -448 138 -502 166
-81 41 -223 147 -294 221 -129 133 -216 278 -271 452 -63 199 -78 284 -94 517
-14 191 -7 320 33 604 10 77 23 172 28 210 5 39 17 102 26 140 8 39 22 99 29
135 8 36 26 119 41 185 28 127 30 139 63 310 11 61 25 130 30 155 5 25 15 83
21 130 6 47 18 129 27 184 10 65 16 174 16 325 1 217 0 230 -27 336 -46 180
-64 228 -129 342 -60 104 -188 271 -228 296 -29 18 -23 42 19 73 20 16 78 65
127 109 50 44 134 118 188 164 l99 84 36 -13 c21 -7 60 -23 87 -35 155 -71
375 -129 618 -161 146 -19 535 -16 642 6 33 6 85 17 115 23 126 25 289 88 465
179 61 31 118 57 128 57 9 1 35 -10 57 -24z m2499 -5003 c7 -26 22 -78 33
-117 11 -38 26 -92 34 -120 8 -27 19 -66 24 -85 4 -19 15 -62 24 -94 16 -55
15 -60 -1 -79 -29 -32 -118 -95 -165 -116 -199 -89 -351 -145 -428 -157 -37
-6 -39 -5 -45 22 -16 77 -59 232 -71 254 -25 51 -61 74 -127 81 -34 3 -88 2
-120 -3 -49 -7 -65 -6 -95 9 -62 30 -53 92 18 128 32 16 174 43 265 50 114 9
145 15 245 46 123 38 218 92 304 173 38 35 74 62 81 60 6 -3 17 -26 24 -52z
m-4861 -6 c37 -18 87 -41 112 -49 25 -9 77 -28 115 -43 131 -49 151 -55 320
-85 27 -5 61 -13 75 -18 14 -5 59 -14 100 -20 118 -19 177 -40 211 -78 37 -43
37 -65 -2 -98 -31 -26 -32 -26 -153 -19 -77 4 -131 2 -148 -5 -31 -12 -56 -46
-68 -93 -5 -18 -16 -58 -25 -88 -9 -30 -21 -74 -26 -97 -15 -61 -27 -67 -91
-48 -163 50 -218 68 -263 85 -27 10 -86 29 -130 43 -118 38 -265 108 -265 127
0 9 22 86 50 171 27 85 55 172 61 194 6 22 18 60 26 85 8 25 16 51 19 58 5 17
6 16 82 -22z m1267 -315 c208 -47 479 -126 650 -188 105 -38 290 -132 376
-191 42 -29 81 -52 86 -52 5 0 22 13 37 29 64 67 478 241 691 290 76 17 308
60 415 76 52 8 129 23 170 34 41 10 82 21 90 23 11 2 14 -4 11 -22 -8 -48 -2
-217 9 -245 8 -22 8 -31 -2 -41 -16 -15 -230 -85 -348 -113 -47 -11 -115 -27
-151 -36 -36 -8 -99 -19 -140 -25 -41 -5 -121 -16 -179 -24 -312 -44 -665 -61
-770 -38 -25 6 -103 16 -175 22 -278 24 -494 67 -810 161 -120 36 -217 73
-222 86 -3 6 9 55 26 109 34 108 37 125 19 154 -20 32 4 39 75 23 34 -7 98
-22 142 -32z m-499 -271 c48 -22 92 -40 98 -40 6 0 50 -16 96 -36 116 -49 229
-88 395 -135 134 -39 173 -48 350 -82 289 -55 816 -94 920 -68 25 6 110 16
188 21 129 9 220 21 377 49 30 6 137 31 238 56 100 25 188 45 195 45 6 0 41
11 77 24 36 13 99 34 140 46 41 13 109 34 150 47 41 14 93 29 115 33 22 5 52
12 66 15 29 8 32 2 74 -155 10 -36 28 -101 40 -145 13 -44 26 -93 29 -110 4
-16 11 -50 17 -75 5 -25 12 -53 15 -62 4 -12 -6 -22 -33 -36 -63 -32 -270
-101 -408 -137 -71 -18 -157 -41 -190 -50 -218 -61 -332 -80 -815 -136 -454
-52 -672 -49 -1130 17 -126 18 -182 28 -275 49 -38 8 -88 19 -110 24 -22 5
-65 16 -95 25 -30 9 -68 21 -85 25 -215 63 -449 154 -630 246 -44 23 -60 36
-58 51 0 10 15 73 31 139 17 66 40 161 52 210 36 150 38 155 50 170 17 20 18
20 116 -25z"/>
<path d="M5250 8321 c-24 -19 -24 -21 -25 -190 -1 -183 2 -192 45 -146 23 24
24 32 24 173 1 81 3 153 6 161 8 22 -22 23 -50 2z"/>
<path d="M5369 8318 c0 -2 -3 -80 -6 -174 l-4 -171 53 -40 c77 -58 192 -118
211 -110 30 11 5 97 -28 97 -19 0 -148 70 -164 89 -10 12 -12 44 -7 142 4 103
2 130 -10 147 -12 18 -41 30 -45 20z"/>
<path d="M5045 8191 c-111 -61 -120 -67 -119 -89 0 -12 1 -89 2 -172 2 -118 5
-150 15 -150 27 0 46 35 49 89 l3 54 70 42 c95 57 119 93 111 165 -4 40 -11
60 -27 73 -28 22 -44 20 -104 -12z m59 -83 c8 -13 8 -23 0 -35 -17 -27 -91
-76 -103 -69 -6 4 -11 25 -11 46 0 30 6 43 27 60 31 24 71 23 87 -2z"/>
<path d="M6869 8137 c-20 -14 -46 -47 -66 -87 -18 -35 -37 -68 -43 -74 -12
-12 -55 1 -151 46 -53 25 -74 29 -103 24 -37 -7 -43 -22 -15 -37 8 -5 62 -31
121 -59 l106 -50 11 -51 c6 -27 11 -57 11 -64 0 -19 34 -19 50 -1 8 10 9 33 5
68 -6 49 -3 59 36 133 23 44 52 94 65 112 41 54 26 76 -27 40z"/>
<path d="M5708 8133 c-2 -5 -2 -92 0 -194 l4 -186 33 -12 c71 -25 143 -40 220
-43 75 -3 80 -2 83 18 5 33 -20 44 -115 50 -48 3 -97 9 -108 14 -11 4 -27 10
-36 13 -13 4 -15 27 -14 158 1 135 -1 155 -17 171 -18 18 -44 24 -50 11z"/>
<path d="M3621 8093 c-47 -23 -71 -67 -71 -129 0 -118 110 -194 306 -211 98
-9 150 30 156 116 l3 44 -60 12 c-33 7 -93 24 -132 37 -77 26 -93 23 -93 -19
0 -19 10 -25 68 -42 38 -12 83 -24 101 -27 44 -9 58 -38 29 -58 -30 -22 -72
-20 -149 5 -62 20 -120 55 -146 87 -7 9 -13 34 -13 57 0 31 6 47 25 65 47 44
201 25 321 -41 60 -32 74 -31 74 6 0 29 -23 46 -100 74 -117 42 -260 53 -319
24z"/>
<path d="M6270 7994 c-40 -58 -170 -284 -170 -296 0 -5 17 -8 38 -6 32 3 40 8
55 41 18 35 22 38 60 35 23 -1 70 2 104 6 l62 8 16 -31 c13 -26 22 -31 51 -31
19 0 37 6 40 13 2 7 -20 50 -50 95 -29 45 -68 111 -86 147 -28 57 -36 65 -61
65 -22 0 -35 -10 -59 -46z m75 -94 c29 -47 26 -60 -15 -60 -16 0 -32 -4 -35
-10 -9 -15 -35 -12 -41 5 -6 15 44 105 58 105 4 0 19 -18 33 -40z"/>
<path d="M4380 8024 c-58 -10 -70 -15 -99 -40 -24 -20 -31 -34 -31 -60 0 -73
73 -104 246 -104 79 0 96 -3 101 -16 4 -11 -1 -22 -12 -30 -26 -19 -226 -18
-280 1 -44 16 -60 8 -50 -24 14 -46 47 -55 190 -54 114 1 139 4 174 22 55 29
76 62 65 103 -18 62 -44 70 -208 70 -132 -1 -147 1 -156 17 -7 14 -5 23 11 37
18 17 38 19 158 19 75 0 145 -2 156 -5 15 -4 21 0 23 15 5 44 -10 50 -140 52
-68 1 -134 -1 -148 -3z"/>
<path d="M4776 7834 c-17 -16 -20 -41 -10 -68 8 -22 57 -20 77 2 22 24 21 45
-1 65 -23 21 -46 22 -66 1z"/>
<path d="M5265 7775 c-115 -63 -306 -123 -495 -156 -97 -17 -507 -23 -625 -9
-105 12 -293 56 -359 84 -50 21 -63 9 -40 -35 37 -69 69 -165 88 -264 35 -182
39 -236 33 -403 -6 -147 -38 -457 -52 -503 -3 -10 -10 -50 -15 -91 -6 -40 -16
-107 -24 -148 -7 -41 -25 -140 -40 -220 -14 -80 -33 -183 -41 -230 -9 -47 -20
-112 -25 -145 -16 -109 -22 -140 -35 -180 -12 -36 -39 -168 -76 -360 -8 -43
-13 -144 -12 -265 0 -205 7 -247 63 -408 58 -163 194 -307 370 -389 88 -41
100 -45 295 -101 209 -61 182 -53 410 -111 225 -57 354 -106 530 -201 71 -38
136 -70 143 -70 8 0 36 18 62 40 26 22 51 40 56 40 4 0 15 6 23 14 16 13 95
55 141 73 63 26 108 43 145 54 22 6 50 15 61 20 75 27 224 54 564 99 113 15
263 53 357 91 255 101 425 336 488 678 15 78 17 126 12 290 -12 384 -58 590
-265 1191 -16 47 -37 117 -46 155 -9 39 -25 102 -36 140 -150 531 -166 783
-67 1055 32 85 67 161 85 182 22 26 6 40 -28 23 -66 -34 -243 -86 -395 -115
-175 -33 -413 -20 -705 39 -25 5 -67 19 -93 30 -27 12 -53 21 -58 21 -14 0
-106 40 -199 87 -46 24 -91 43 -100 42 -8 0 -51 -20 -95 -44z m208 -104 c111
-54 257 -103 392 -132 152 -32 221 -39 395 -39 183 0 242 7 413 46 42 9 80 14
84 10 4 -3 -1 -30 -10 -59 -48 -153 -64 -455 -32 -632 34 -195 122 -551 170
-690 7 -22 30 -94 50 -160 20 -66 47 -147 60 -180 33 -85 51 -142 87 -285 38
-155 53 -260 73 -511 l15 -197 -26 -143 c-30 -177 -43 -221 -88 -307 -72 -135
-154 -216 -291 -284 -96 -48 -206 -74 -430 -103 -395 -51 -558 -83 -685 -133
-88 -35 -247 -123 -293 -161 -17 -14 -22 -14 -50 3 -158 93 -371 182 -527 219
-449 109 -653 169 -763 222 -63 31 -164 115 -211 176 -52 66 -101 159 -132
246 -26 77 -26 81 -21 268 6 181 20 311 52 455 8 36 26 130 40 210 14 80 32
174 40 210 8 36 30 153 50 260 20 107 43 227 50 265 8 39 19 115 25 170 6 55
15 120 20 145 24 118 41 373 37 535 -4 156 -13 232 -47 375 -24 100 -24 104
-4 96 11 -4 55 -14 99 -22 44 -8 107 -20 140 -26 77 -15 425 -14 535 1 242 32
460 93 590 163 36 20 71 36 78 37 7 0 59 -21 115 -48z"/>
<path d="M5155 7251 c-92 -12 -151 -27 -264 -66 -190 -67 -354 -165 -453 -273
-50 -54 -128 -150 -128 -158 0 -3 -11 -20 -24 -37 -66 -88 -131 -259 -160
-422 -9 -49 -21 -109 -26 -133 -12 -53 -13 -289 -1 -328 4 -16 16 -65 26 -109
39 -173 147 -334 262 -391 51 -25 69 -28 148 -28 79 0 97 4 145 28 64 33 96
60 116 99 20 37 34 34 34 -7 0 -41 33 -86 64 -86 12 0 33 12 47 28 25 28 34
43 76 122 13 25 28 49 32 53 13 13 26 -13 45 -88 10 -38 22 -74 27 -79 16 -17
10 -41 -13 -51 -31 -14 -36 -60 -9 -95 23 -32 19 -41 -18 -34 -38 8 -105 -12
-139 -40 -15 -14 -40 -47 -55 -74 -74 -136 -47 -290 72 -412 75 -77 141 -101
271 -102 168 -2 274 44 387 165 62 66 83 101 188 302 70 134 101 180 154 228
47 42 59 44 177 23 127 -23 217 -3 230 51 10 37 -32 72 -89 75 -50 2 -113 -1
-147 -8 -87 -17 -83 -17 -130 24 -43 37 -80 96 -95 150 -6 21 8 31 19 13 3 -5
31 -20 61 -35 49 -23 68 -26 160 -26 116 0 154 10 243 67 111 70 166 167 208
363 18 86 18 279 -1 375 -57 300 -189 516 -410 670 -90 63 -299 175 -327 175
-8 0 -18 4 -24 8 -12 10 -73 31 -143 49 -65 16 -441 26 -536 14z m447 -71
c144 -24 210 -46 342 -112 244 -122 390 -257 480 -442 64 -132 90 -211 105
-327 22 -171 8 -326 -44 -467 -35 -93 -87 -152 -171 -193 -60 -30 -73 -32
-167 -33 -80 0 -110 4 -142 19 -55 27 -109 84 -137 144 -40 88 -68 64 -68 -59
0 -95 56 -232 127 -310 l35 -40 -62 -63 c-60 -60 -101 -126 -249 -397 -57
-103 -132 -183 -207 -217 -69 -31 -195 -49 -274 -39 -112 14 -203 92 -234 200
-32 111 30 286 101 286 27 0 30 -12 7 -31 -31 -25 -64 -107 -64 -156 1 -173
187 -279 366 -211 72 28 127 81 162 156 21 46 26 73 26 137 0 44 -6 97 -13
119 -11 31 -11 46 -1 77 10 30 11 48 2 78 -16 53 -15 126 4 208 18 81 27 98
46 90 15 -5 58 -118 58 -150 0 -19 34 -57 51 -57 15 0 69 61 84 95 26 61 27
126 5 212 l-21 82 40 80 c22 43 45 82 50 85 5 3 40 -25 78 -63 76 -76 136
-111 240 -140 37 -10 81 -24 97 -30 39 -15 54 -1 38 34 -27 60 -13 194 39 365
16 50 19 79 14 128 -4 37 -1 100 5 146 17 112 9 147 -48 208 -54 58 -190 151
-252 173 -68 24 -150 20 -194 -10 -20 -14 -41 -25 -46 -25 -4 0 -33 35 -63 78
-58 83 -123 147 -163 162 -14 6 -59 10 -99 10 -86 0 -125 14 -125 45 0 25 -18
45 -41 45 -22 0 -31 -14 -39 -60 l-6 -35 -75 3 c-62 3 -84 0 -117 -17 -66 -34
-108 -76 -163 -167 -53 -86 -66 -96 -90 -68 -17 21 -83 54 -108 54 -79 0 -227
-104 -311 -218 -63 -86 -76 -135 -54 -205 8 -29 20 -103 24 -164 5 -62 17
-139 26 -170 16 -54 21 -133 18 -283 -1 -36 -3 -100 -3 -143 -2 -72 1 -83 33
-142 21 -38 31 -67 25 -70 -18 -12 -97 36 -147 89 -62 66 -114 167 -141 276
-32 128 -30 377 5 542 64 307 190 510 425 683 242 178 644 262 981 205z m-377
-252 c30 -13 34 -48 6 -48 -19 0 -19 -2 -5 -35 21 -50 17 -71 -15 -94 -54 -39
-72 -29 -83 44 -2 14 -12 21 -33 23 -39 5 -57 20 -53 46 2 16 20 27 78 48 41
14 76 27 77 27 1 1 14 -4 28 -11z m362 -40 c34 -13 39 -31 9 -36 -21 -5 -69
26 -61 38 8 13 12 12 52 -2z m-83 -136 c-6 -9 -16 -18 -22 -20 -21 -7 -25 27
-6 55 l17 27 11 -23 c6 -15 7 -28 0 -39z m74 5 c3 -22 -1 -27 -17 -27 -17 0
-21 6 -21 31 0 24 4 30 18 27 10 -2 18 -14 20 -31z m81 16 c9 -17 11 -17 24 1
12 17 14 17 30 1 9 -9 17 -30 17 -46 0 -20 5 -29 16 -29 10 0 14 -7 12 -22 -3
-21 -9 -23 -70 -26 -56 -2 -68 0 -68 13 0 20 38 34 73 28 34 -7 34 -1 1 34
-23 25 -27 26 -35 10 -13 -23 -26 -22 -39 4 -22 40 17 71 39 32z m-681 -15
c-2 -13 -11 -24 -20 -26 -21 -4 -24 18 -6 36 19 19 30 14 26 -10z m60 -10 c-5
-32 -28 -35 -28 -4 0 17 5 26 16 26 10 0 14 -7 12 -22z m60 -12 c3 -13 -1 -17
-14 -14 -11 2 -20 11 -22 22 -3 13 1 17 14 14 11 -2 20 -11 22 -22z m-310 -38
c52 -48 46 -101 -9 -73 -59 31 -121 12 -200 -62 -29 -26 -62 -65 -75 -85 -27
-43 -43 -47 -69 -18 -25 28 -14 59 47 125 119 130 239 175 306 113z m472 24
c0 -16 -24 -32 -49 -32 -23 0 -24 1 -6 20 18 20 55 28 55 12z m816 -22 c74
-38 193 -125 201 -147 6 -16 -37 -63 -57 -63 -5 0 -38 25 -72 56 -106 95 -204
133 -280 110 -24 -7 -28 -5 -28 12 0 67 134 84 236 32z m-1122 -19 c9 -15 -23
-36 -36 -23 -5 5 -7 15 -4 21 9 13 33 14 40 2z m323 -66 c25 -28 39 -35 67
-35 28 0 40 7 62 36 27 34 30 35 73 29 25 -3 107 -9 181 -13 l135 -7 12 -55
c16 -78 16 -406 -1 -515 -13 -86 -55 -195 -75 -195 -4 0 -11 25 -15 56 -6 57
-29 114 -45 114 -5 0 -11 -39 -13 -87 -4 -80 -3 -91 18 -122 28 -42 20 -56
-36 -65 -40 -6 -50 -13 -103 -75 -20 -23 -33 -30 -48 -26 -14 5 -22 0 -30 -22
-21 -51 -28 -95 -19 -119 7 -18 4 -25 -16 -38 -29 -20 -31 -45 -4 -79 11 -14
20 -28 20 -31 0 -3 -24 -3 -52 0 -53 5 -198 69 -198 87 0 4 5 17 11 28 9 17 7
21 -11 26 -16 4 -20 11 -16 28 4 16 0 25 -15 31 -19 9 -19 10 5 43 23 31 25
61 4 61 -6 0 -8 10 -4 23 4 12 9 54 11 92 4 71 27 145 45 145 6 0 10 -6 11
-12 1 -28 10 -63 17 -69 13 -12 75 -29 104 -29 16 0 44 6 63 14 28 12 36 23
48 63 l14 48 7 -31 c7 -29 -5 -130 -19 -165 -10 -27 17 -35 33 -11 11 16 25
22 53 22 34 0 39 3 39 24 0 13 -7 29 -15 36 -11 9 -15 33 -15 85 0 64 -3 77
-25 103 -14 17 -25 37 -25 45 0 21 -20 33 -30 17 -4 -7 -5 -30 -3 -51 6 -44
-7 -51 -30 -15 -9 13 -30 26 -47 30 -28 5 -31 9 -25 28 17 56 17 75 -1 82 -13
5 -26 -1 -44 -22 -39 -44 -77 -64 -110 -57 -25 5 -31 2 -44 -24 -9 -16 -16
-43 -16 -59 0 -33 -31 -129 -56 -171 -18 -31 -15 -75 11 -125 38 -73 0 -100
-52 -37 -20 23 -53 51 -74 62 -43 21 -45 26 -26 54 7 11 19 40 26 65 7 25 17
59 23 75 17 50 21 74 14 91 -6 16 -8 16 -25 0 -16 -15 -50 -83 -65 -130 -9
-28 -30 -5 -55 62 -38 103 -55 495 -27 617 16 66 38 90 76 80 79 -22 154 -17
250 15 47 15 66 10 97 -25z m676 -9 c4 -10 -5 -15 -31 -19 -43 -5 -47 -3 -39
18 8 19 63 20 70 1z m-1197 -82 l34 -26 0 -171 c0 -159 -2 -175 -25 -234 -36
-90 -64 -132 -90 -139 -19 -5 -100 -90 -163 -173 -32 -42 -42 -19 -42 102 0
70 -6 130 -15 161 -9 28 -15 88 -15 141 0 86 2 93 31 133 19 26 39 42 52 42
29 0 104 82 117 128 9 37 35 60 68 61 7 1 29 -11 48 -25z m1185 16 c13 -7 25
-7 38 -1 16 9 30 -1 93 -62 90 -89 131 -116 151 -99 10 9 22 10 40 3 23 -9 25
-15 32 -109 6 -85 4 -108 -14 -167 -34 -110 -51 -193 -51 -251 0 -63 -15 -76
-56 -49 -22 14 -28 15 -35 4 -6 -11 -26 -5 -90 26 -101 50 -158 109 -183 193
-10 30 8 29 51 -4 49 -38 52 -22 5 31 l-40 46 -4 217 c-2 119 -2 220 0 225 5
10 40 9 63 -3z m369 -56 c0 -24 -19 -54 -35 -54 -19 0 -19 20 1 48 18 26 34
29 34 6z m-1510 -452 c0 -10 -13 -34 -30 -52 -30 -34 -38 -35 -21 -2 5 9 14
29 20 45 12 31 31 36 31 9z m620 -77 c14 -17 4 -55 -16 -55 -9 0 -14 11 -14
35 0 37 10 44 30 20z m-589 -36 c24 -46 59 -134 59 -150 0 -11 -14 -47 -31
-81 l-31 -62 -42 48 c-51 58 -92 86 -128 86 -41 0 -33 21 23 60 27 19 66 54
85 78 36 43 51 48 65 21z m893 -242 c14 -38 -2 -60 -50 -70 -34 -7 -41 -5 -56
14 -38 46 -8 92 56 87 34 -3 42 -7 50 -31z m-1017 -19 c55 -52 67 -112 33
-177 -49 -96 -179 -92 -230 8 -28 56 -26 102 7 142 53 62 139 75 190 27z m280
3 c45 -28 50 -54 19 -102 -15 -21 -31 -39 -37 -39 -27 0 -88 24 -93 36 -8 21
14 88 36 107 26 22 36 21 75 -2z m733 -207 c0 -14 -21 -19 -33 -7 -9 9 13 34
24 27 5 -3 9 -12 9 -20z m-440 -104 c0 -5 -9 -10 -21 -10 -11 0 -17 5 -14 10
3 6 13 10 21 10 8 0 14 -4 14 -10z m3 -121 c26 -17 47 -35 47 -40 0 -15 -33
-24 -38 -11 -2 7 -16 12 -31 12 -33 0 -64 30 -55 54 9 23 24 20 77 -15z m145
-2 c4 -22 -46 -43 -62 -27 -8 8 -4 16 14 30 28 22 44 21 48 -3z m-180 -120 c2
-12 -3 -17 -17 -17 -12 0 -21 6 -21 13 0 31 32 34 38 4z m107 -8 c10 -15 -1
-23 -20 -15 -9 3 -13 10 -10 16 8 13 22 13 30 -1z m-228 -26 c3 -10 13 -26 21
-35 12 -15 13 -27 3 -75 -10 -53 -10 -58 11 -80 25 -27 57 -25 117 9 54 30 61
38 61 67 0 32 8 44 37 60 12 6 28 23 35 39 16 32 56 42 74 17 15 -20 8 -45
-11 -45 -21 0 -27 -17 -15 -39 8 -16 6 -22 -7 -30 -15 -8 -16 -13 -5 -31 16
-26 8 -40 -19 -33 -15 4 -22 0 -26 -16 -3 -11 -8 -21 -12 -21 -4 0 -26 -18
-50 -39 -42 -38 -45 -39 -72 -25 -34 17 -71 18 -87 2 -10 -10 -14 -8 -18 10
-7 23 -28 30 -39 12 -10 -16 -35 -12 -42 8 -3 9 -15 24 -26 33 -20 16 -20 18
-3 44 16 25 16 28 1 39 -15 11 -15 14 1 46 31 62 34 69 34 85 0 21 29 19 37
-2z m136 -26 c11 -29 -52 -131 -70 -114 -6 7 48 127 58 127 4 0 9 -6 12 -13z"/>
<path d="M5155 6532 c-38 -8 -45 -22 -45 -98 0 -108 3 -110 238 -107 121 2
189 6 198 14 19 16 19 148 0 175 -13 18 -28 19 -193 19 -98 0 -187 -1 -198 -3z
m135 -42 c0 -5 -4 -10 -10 -10 -5 0 -10 -13 -10 -29 0 -51 42 -71 144 -71 47
0 86 -4 86 -8 0 -11 -320 -25 -344 -16 -13 5 -15 15 -10 48 4 22 14 49 22 59
8 9 12 17 8 17 -4 0 -4 5 -1 10 3 6 31 10 61 10 30 0 54 -4 54 -10z m195 0
c-3 -5 -24 -10 -45 -10 -21 0 -42 5 -45 10 -4 6 13 10 45 10 32 0 49 -4 45
-10z m3 -36 c38 -11 27 -34 -17 -34 -40 0 -57 11 -46 30 7 11 29 13 63 4z
m-138 -19 c0 -8 -7 -15 -15 -15 -8 0 -15 7 -15 15 0 8 7 15 15 15 8 0 15 -7
15 -15z"/>
<path d="M4902 6338 c-35 -35 4 -171 61 -212 34 -25 57 -14 71 33 8 28 4 43
-31 109 -31 61 -44 78 -64 80 -13 2 -30 -3 -37 -10z"/>
<path d="M5650 6313 c-31 -35 -32 -39 -28 -105 6 -83 17 -98 53 -74 65 43 110
173 70 203 -32 22 -61 15 -95 -24z"/>
<path d="M6030 5887 c0 -14 60 -47 87 -47 24 0 -4 30 -44 47 -40 16 -43 16
-43 0z"/>
<path d="M4754 4501 c-52 -32 -74 -68 -74 -122 0 -40 5 -55 32 -84 56 -64 88
-74 239 -74 73 0 141 5 151 10 12 6 24 5 38 -3 18 -11 23 -10 39 11 l19 24 38
-23 c52 -31 154 -34 202 -5 27 16 36 17 50 7 31 -22 45 -25 63 -13 15 9 24 8
43 -4 15 -10 40 -15 68 -13 41 3 43 5 48 38 4 30 10 36 35 40 90 15 112 85 53
164 -43 57 -66 66 -165 66 -98 0 -106 -8 -101 -102 3 -69 -12 -87 -32 -38 -23
55 -69 109 -106 125 -72 30 -175 13 -219 -35 -16 -17 -19 -34 -18 -76 2 -38
-1 -54 -10 -54 -21 0 -104 73 -123 109 -30 55 -67 71 -159 71 -61 0 -87 -5
-111 -19z m141 -21 c-3 -5 -18 -10 -32 -10 -40 0 -73 -36 -73 -81 0 -21 7 -45
16 -53 31 -32 124 -9 124 30 0 12 -7 14 -28 9 -31 -6 -59 15 -47 35 9 15 139
8 159 -9 22 -18 22 -109 0 -118 -15 -6 -42 5 -76 29 -15 10 -20 9 -31 -6 -11
-15 -27 -19 -76 -19 -54 0 -65 3 -91 28 -52 50 -36 129 33 159 38 17 131 21
122 6z m393 -17 c-4 -26 10 -43 36 -43 77 0 130 -61 88 -102 -21 -21 -108 -41
-146 -33 -65 13 -76 17 -76 28 0 9 17 12 55 12 30 0 56 4 57 9 2 5 -18 16 -44
25 -60 20 -82 42 -73 71 12 38 109 69 103 33z m342 -37 c0 -64 11 -75 41 -45
17 17 20 29 16 61 l-5 40 31 -6 c41 -8 48 -16 49 -56 1 -43 -31 -70 -83 -70
-34 0 -39 -3 -39 -22 0 -36 -15 -50 -46 -46 -23 2 -28 7 -25 23 2 11 5 49 5
85 2 73 9 90 37 90 16 0 19 -7 19 -54z m-220 34 c0 -5 -9 -10 -21 -10 -11 0
-17 5 -14 10 3 6 13 10 21 10 8 0 14 -4 14 -10z m-295 -140 c0 -13 -6 -25 -12
-27 -16 -6 -27 21 -19 43 9 23 31 11 31 -16z m403 -7 c-2 -10 -12 -18 -23 -18
-11 0 -21 8 -23 18 -3 13 3 17 23 17 20 0 26 -4 23 -17z"/>
<path d="M4086 7779 c-45 -35 -29 -79 29 -79 17 0 36 5 43 12 19 19 15 66 -7
78 -27 14 -35 13 -65 -11z"/>
<path d="M7092 7705 c-18 -20 -72 -176 -72 -207 0 -19 38 -34 51 -21 8 8 31
80 46 143 9 39 22 50 60 50 44 0 50 -18 29 -82 -25 -77 -22 -90 16 -86 30 3
32 6 45 62 7 33 18 65 24 73 13 14 95 18 103 4 3 -5 -3 -42 -13 -82 -18 -68
-18 -75 -3 -87 23 -17 35 -10 43 24 4 16 16 65 28 108 12 44 21 83 21 88 0 4
-29 8 -65 8 -35 0 -86 4 -112 9 -26 6 -78 12 -116 13 -58 3 -70 1 -85 -17z"/>
<path d="M3230 7623 c0 -6 7 -24 15 -41 13 -25 31 -36 96 -61 44 -17 84 -31
89 -31 4 0 10 -6 13 -14 4 -9 -19 -30 -69 -61 -68 -44 -74 -50 -74 -81 0 -27
4 -34 20 -34 18 0 119 65 184 118 23 19 39 23 75 20 51 -3 60 8 42 54 -8 23
-17 26 -77 33 -37 4 -86 15 -108 26 -47 21 -163 68 -188 76 -10 3 -18 1 -18
-4z"/>
<path d="M7006 7423 c-3 -4 -6 -17 -6 -30 0 -23 1 -23 111 -23 98 0 110 -2
107 -17 -2 -9 -23 -28 -48 -41 -113 -63 -180 -112 -186 -137 -4 -14 -3 -29 0
-33 4 -3 90 -6 192 -7 169 0 185 2 190 18 12 38 -10 45 -125 40 -106 -4 -136
2 -108 25 18 15 113 69 184 103 50 25 63 37 68 61 4 16 5 31 3 32 -7 7 -376
15 -382 9z"/>
<path d="M3368 7244 l-48 -24 0 -70 c0 -38 5 -72 10 -75 6 -4 57 -11 113 -16
56 -5 132 -14 170 -21 37 -6 70 -8 74 -5 3 4 0 39 -7 79 -15 86 -44 119 -123
143 -73 22 -134 18 -189 -11z m209 -64 c29 -13 44 -27 49 -45 3 -14 4 -28 2
-31 -3 -2 -51 1 -107 6 -148 16 -173 29 -134 72 23 25 132 25 190 -2z"/>
<path d="M7101 7068 c-68 -35 -85 -65 -90 -158 -2 -66 1 -87 19 -125 31 -64
54 -77 132 -73 l63 3 1 55 c1 30 -1 83 -4 118 -5 60 -6 63 -30 60 -25 -3 -26
-4 -26 -93 -1 -79 -3 -90 -19 -93 -11 -2 -32 8 -48 24 -26 25 -29 34 -29 88 0
114 61 174 146 146 18 -6 45 -25 60 -43 24 -29 26 -35 21 -116 -2 -47 -8 -96
-12 -109 -7 -21 -5 -23 21 -20 42 5 55 38 52 133 -5 141 -59 210 -172 222 -30
3 -53 -2 -85 -19z"/>
<path d="M3324 7007 c-18 -49 2 -58 173 -76 122 -13 170 -56 107 -98 -23 -15
-36 -15 -117 -5 -51 7 -109 15 -130 18 l-38 6 3 -33 c3 -33 5 -34 53 -41 28
-3 91 -9 140 -13 88 -7 92 -7 122 19 37 31 52 91 34 135 -19 43 -61 61 -184
76 -62 8 -122 17 -134 21 -16 4 -25 1 -29 -9z"/>
<path d="M3324 6713 c-26 -28 -40 -95 -31 -150 10 -61 98 -117 203 -128 52 -6
63 -4 94 17 44 30 63 69 64 130 1 79 -51 127 -156 142 -53 8 -51 11 -63 -91
-5 -50 -4 -53 19 -59 35 -8 46 2 46 41 0 28 5 36 24 41 15 3 34 -1 50 -11 52
-35 27 -114 -49 -153 -51 -26 -175 46 -175 101 0 29 17 74 38 99 32 39 -29 59
-64 21z"/>
<path d="M7258 6645 c-3 -3 -47 -9 -99 -13 -92 -7 -94 -8 -91 -31 1 -14 4 -26
5 -27 2 -2 61 3 132 10 72 7 144 13 160 12 26 -1 30 3 30 24 0 24 -3 25 -65
28 -36 2 -68 0 -72 -3z"/>
<path d="M7369 6516 c-4 -4 -158 -25 -234 -32 -16 -1 -33 -3 -37 -3 -14 -2 -9
-28 7 -41 13 -11 35 -10 120 1 131 18 148 13 108 -29 -79 -81 -154 -174 -151
-188 6 -31 32 -38 90 -26 29 6 98 19 153 28 55 10 102 19 104 21 4 3 -19 63
-25 63 -1 0 -15 -5 -31 -11 -15 -7 -53 -16 -83 -20 -30 -4 -65 -11 -77 -15
-45 -13 -24 30 52 109 76 78 83 93 65 128 -9 17 -49 27 -61 15z"/>
<path d="M3254 6404 c-4 -14 -3 -29 2 -34 5 -4 50 -13 99 -20 133 -17 138 -32
24 -76 -38 -15 -72 -31 -75 -36 -3 -4 -13 -8 -23 -8 -32 0 -72 -40 -69 -68 3
-25 7 -27 98 -39 52 -7 130 -17 172 -24 86 -13 108 -9 108 20 0 24 -11 28
-109 36 -82 8 -117 21 -103 41 4 6 39 23 77 38 125 47 160 69 163 101 4 34
-10 45 -63 45 -52 1 -192 24 -228 39 -45 18 -66 14 -73 -15z"/>
<path d="M7495 6169 c-40 -12 -207 -39 -244 -39 -17 0 -32 -4 -36 -10 -3 -5 8
-53 26 -107 17 -54 34 -109 38 -122 9 -32 36 -50 52 -34 13 13 4 56 -29 155
-19 58 -6 81 42 76 36 -3 51 -28 66 -109 6 -29 12 -54 15 -57 9 -9 55 9 55 22
0 7 -9 41 -21 76 -11 34 -18 69 -15 76 8 21 73 18 85 -3 5 -10 17 -55 27 -100
16 -74 20 -83 40 -83 13 0 26 5 30 11 8 13 -12 112 -40 194 -23 65 -34 72 -91
54z"/>
<path d="M3348 6033 c-136 -3 -148 -5 -158 -24 -22 -39 -3 -57 143 -129 78
-39 147 -76 154 -82 19 -16 45 -1 41 24 -2 13 -19 30 -43 44 -31 17 -41 29
-43 52 -4 41 20 62 73 62 29 0 45 5 49 15 10 28 -5 45 -38 43 -17 -1 -97 -4
-178 -5z m46 -68 c6 -17 -2 -45 -14 -45 -4 0 -21 5 -39 11 -29 10 -39 27 -24
42 13 13 71 7 77 -8z"/>
<path d="M7536 5844 c-38 -9 -108 -21 -155 -28 -64 -9 -85 -16 -84 -27 1 -8
11 -48 21 -89 11 -41 23 -93 28 -115 7 -31 14 -41 32 -43 32 -5 36 16 17 99
-26 117 -27 114 28 117 53 4 51 6 70 -88 14 -67 32 -85 61 -61 11 9 11 18 1
49 -7 20 -15 57 -17 82 l-3 45 39 0 c36 0 40 -3 52 -35 7 -19 13 -54 13 -77 1
-23 4 -48 7 -57 8 -21 53 -21 61 0 3 9 -7 68 -23 130 -32 130 -23 124 -148 98z"/>
<path d="M3150 5795 c-26 -31 -8 -50 57 -60 34 -5 67 -15 72 -20 9 -9 0 -79
-12 -91 -2 -2 -37 1 -76 8 -62 11 -74 10 -82 -2 -24 -39 -10 -46 156 -80 33
-6 86 -18 118 -27 65 -16 87 -8 87 33 0 21 -6 24 -61 30 -76 9 -91 22 -75 66
19 57 20 57 88 43 67 -14 88 -8 88 26 0 26 -25 36 -100 38 -35 2 -71 6 -80 11
-8 4 -40 11 -70 15 -30 4 -65 11 -77 16 -15 5 -25 3 -33 -6z"/>
<path d="M3093 5553 c-7 -2 -13 -19 -13 -35 0 -29 -8 -61 -45 -188 -13 -42
-12 -46 7 -63 34 -29 44 -18 63 67 6 27 9 28 43 23 34 -6 159 -34 224 -52 23
-6 28 -3 34 18 9 36 2 42 -63 56 -32 8 -71 17 -88 21 -16 5 -46 11 -66 14 -52
9 -60 22 -46 75 10 38 10 44 -8 57 -20 15 -23 15 -42 7z"/>
<path d="M7672 5550 c-24 -10 -90 -23 -227 -44 -84 -13 -98 -24 -73 -59 12
-15 20 -16 75 -5 35 6 66 8 70 4 5 -4 8 -32 8 -63 0 -67 -24 -93 -86 -93 -38
0 -39 -1 -39 -34 0 -19 4 -37 9 -41 18 -11 92 8 128 32 32 22 39 23 60 12 19
-10 33 -10 71 0 92 24 112 66 87 178 -28 128 -32 133 -83 113z m5 -68 c7 -5
17 -30 22 -57 22 -120 -80 -156 -110 -39 -19 72 -17 77 26 90 50 15 48 15 62
6z"/>
<path d="M3280 5220 c-36 -4 -113 -11 -172 -15 l-108 -7 -8 -31 c-12 -42 -4
-50 71 -77 83 -29 204 -78 249 -101 23 -12 39 -15 43 -9 13 20 -7 51 -46 70
-30 16 -39 26 -39 46 0 43 17 64 53 64 39 0 57 15 57 47 0 25 3 25 -100 13z
m-60 -95 c0 -34 -18 -39 -63 -20 -58 24 -49 45 20 45 39 0 43 -2 43 -25z"/>
<path d="M7625 5174 c-49 -8 -121 -15 -160 -17 -67 -2 -70 -3 -73 -28 -2 -15
3 -29 10 -31 16 -6 364 35 373 44 4 3 4 16 0 27 -7 25 -20 25 -150 5z"/>
<path d="M2980 5015 c0 -25 5 -38 18 -42 27 -10 92 -67 92 -80 0 -7 -25 -31
-55 -54 -50 -38 -55 -45 -55 -80 0 -22 2 -39 5 -39 3 0 47 34 97 75 l92 74 86
3 c83 3 85 4 85 28 0 24 -2 25 -91 30 l-91 5 -76 58 c-90 68 -107 71 -107 22z"/>
<path d="M7393 5023 c-3 -6 -3 -22 -1 -35 3 -23 4 -23 112 -19 133 4 134 -3
15 -68 -120 -65 -137 -80 -141 -121 l-3 -35 55 -2 c30 -2 115 -10 188 -19 144
-18 156 -16 150 31 -3 17 -11 20 -63 22 -105 3 -208 18 -212 30 -4 11 161 108
227 133 52 20 61 30 58 64 l-3 31 -189 0 c-135 0 -190 -3 -193 -12z"/>
<path d="M3263 4765 c-44 -24 -101 -50 -125 -58 -85 -29 -158 -66 -158 -80 0
-8 5 -29 11 -46 l12 -33 191 6 c105 3 195 6 199 6 5 0 7 12 5 28 -3 25 -7 27
-53 32 -46 5 -50 7 -59 39 -7 25 -7 36 2 39 6 2 26 14 44 26 24 17 32 29 30
47 -1 13 -6 27 -10 30 -4 4 -44 -12 -89 -36z m-33 -124 c0 -14 -9 -20 -34 -23
-46 -5 -73 4 -54 19 35 28 88 31 88 4z"/>
<path d="M7402 4645 c-49 -44 -54 -55 -83 -168 -17 -68 23 -126 113 -165 53
-23 54 -23 73 46 12 40 35 104 59 163 9 20 -20 51 -42 47 -9 -2 -19 -18 -24
-38 -15 -69 -44 -135 -61 -138 -22 -5 -67 45 -67 75 0 75 100 180 159 167 72
-17 111 -64 111 -132 0 -43 -32 -136 -55 -162 -30 -33 -10 -79 29 -64 20 8 66
115 76 180 11 66 1 126 -27 156 -41 47 -105 78 -159 78 -47 0 -56 -4 -102 -45z"/>
<path d="M3184 4487 c-61 -42 -114 -110 -114 -145 0 -15 7 -40 16 -57 9 -16
23 -42 31 -57 8 -15 18 -30 22 -32 4 -3 39 13 77 35 38 23 111 63 162 91 50
27 92 54 92 59 0 20 -43 92 -67 115 -22 21 -36 24 -98 24 -66 0 -77 -3 -121
-33z m199 -48 c22 -27 17 -33 -68 -79 -33 -17 -79 -43 -103 -57 l-44 -26 -20
21 c-19 18 -20 24 -8 51 25 62 128 125 190 117 19 -3 43 -15 53 -27z"/>
<path d="M3460 4300 c0 -12 16 -44 35 -73 19 -28 35 -57 35 -64 0 -13 -61 -53
-82 -53 -8 0 -24 17 -36 39 -31 54 -46 65 -71 51 -29 -15 -26 -35 10 -81 36
-45 35 -64 -4 -87 -28 -17 -29 -17 -53 13 -13 17 -33 49 -44 72 -10 23 -24 44
-30 48 -13 8 -40 -13 -40 -31 0 -15 72 -138 105 -180 l22 -28 76 50 c42 27
107 67 143 89 36 22 75 47 87 56 l21 16 -31 39 c-17 22 -45 63 -63 92 -24 39
-37 52 -56 52 -17 0 -24 -6 -24 -20z"/>
<path d="M6395 3741 c-33 -10 -80 -24 -104 -30 l-43 -12 7 -47 c3 -26 15 -80
26 -120 10 -40 19 -90 19 -112 0 -21 5 -42 10 -45 12 -7 204 32 233 47 21 11
22 34 1 46 -11 6 -42 1 -93 -14 -42 -13 -81 -22 -87 -20 -14 5 -26 60 -18 81
4 8 16 15 29 15 30 0 87 20 105 36 12 12 12 16 -2 30 -14 15 -21 15 -73 -1
-67 -19 -81 -16 -87 20 -7 33 13 47 99 70 68 19 87 33 77 59 -8 20 -23 20 -99
-3z"/>
<path d="M4176 3719 c-45 -38 -66 -82 -66 -141 0 -82 48 -128 181 -173 106
-37 159 -31 159 16 0 18 -27 29 -74 29 -80 0 -206 79 -206 129 0 30 26 78 49
91 52 27 163 3 234 -52 48 -38 69 -31 65 19 -3 36 -7 40 -72 73 -59 30 -81 35
-150 38 -79 3 -82 2 -120 -29z"/>
<path d="M6065 3661 c-51 -13 -112 -49 -133 -78 -28 -41 -45 -100 -38 -135 10
-49 47 -115 72 -128 39 -22 179 -6 225 25 61 40 71 62 63 140 -7 66 -7 66 -33
60 -14 -4 -60 -13 -101 -20 -112 -19 -122 -25 -97 -59 13 -17 18 -17 87 -3 41
8 78 13 82 11 15 -9 8 -61 -9 -76 -40 -33 -135 -51 -179 -33 -55 23 -71 118
-30 179 23 36 105 60 177 52 53 -6 59 -5 59 12 0 48 -68 73 -145 53z"/>
<path d="M4635 3608 c-45 -16 -65 -37 -91 -96 -29 -64 -30 -105 -4 -146 21
-35 40 -47 110 -71 89 -30 197 -7 230 48 28 45 36 146 16 185 -38 73 -167 113
-261 80z m151 -69 c19 -11 39 -29 44 -39 24 -45 3 -123 -42 -154 -52 -36 -151
-9 -183 51 -16 30 -17 38 -6 71 7 20 25 49 39 65 33 35 98 37 148 6z"/>
<path d="M5780 3569 c-25 -5 -72 -12 -105 -15 -33 -4 -63 -11 -66 -16 -3 -5
-3 -28 1 -51 5 -23 14 -93 21 -154 11 -98 15 -113 31 -113 36 0 233 44 239 53
4 5 4 18 1 29 -3 14 -11 18 -31 14 -168 -33 -181 -32 -181 9 0 29 9 34 94 49
59 11 61 12 64 44 2 17 1 32 -2 32 -3 0 -31 -7 -63 -15 -96 -25 -124 -16 -104
37 6 17 23 24 95 39 49 10 91 20 94 24 9 9 -13 40 -29 41 -8 1 -34 -2 -59 -7z"/>
<path d="M4945 3418 c-26 -194 -28 -181 26 -189 25 -4 88 -8 140 -10 l94 -4 3
28 3 27 -98 0 c-54 0 -104 4 -112 9 -11 7 -11 23 -2 92 6 46 12 104 13 129 3
42 1 45 -23 48 -25 3 -25 3 -44 -130z"/>
<path d="M5280 3508 c0 -7 -1 -78 -3 -158 l-2 -145 136 -3 c147 -3 164 3 148
46 -9 24 -6 24 -164 7 -67 -7 -69 -3 -62 133 6 104 5 121 -9 126 -25 10 -44 7
-44 -6z"/>
<path d="M3736 2808 c-3 -7 -11 -38 -20 -68 -8 -30 -26 -94 -40 -141 -15 -47
-26 -93 -26 -102 0 -19 29 -37 62 -37 20 0 25 8 38 63 16 65 42 85 48 37 6
-41 41 -163 50 -172 5 -5 22 -10 38 -11 28 -2 30 1 62 98 19 55 42 128 51 162
17 59 17 63 1 78 -9 8 -28 15 -43 15 -22 0 -27 -5 -32 -37 -25 -142 -44 -148
-70 -20 -10 50 -23 100 -29 109 -19 32 -83 50 -90 26z"/>
<path d="M7060 2757 c-34 -12 -35 -15 -50 -89 -8 -44 -20 -78 -26 -78 -7 0
-26 22 -43 49 -18 27 -39 52 -48 55 -20 8 -94 -14 -100 -30 -2 -6 5 -49 17
-95 12 -46 28 -113 36 -149 18 -80 32 -96 71 -83 34 12 40 40 19 93 -23 59 -4
56 49 -5 26 -30 50 -53 54 -50 5 2 11 37 15 77 6 68 18 100 32 86 3 -4 12 -36
21 -72 16 -70 17 -72 57 -56 28 10 35 45 16 78 -8 14 -40 139 -66 260 -5 25
-6 25 -54 9z"/>
<path d="M4172 2622 c-101 -105 -222 -249 -222 -265 0 -8 14 -17 32 -21 24 -5
37 -1 54 15 22 21 24 21 78 4 44 -14 57 -23 65 -46 5 -16 21 -34 35 -40 31
-15 60 -5 52 18 -4 9 -11 89 -17 177 -13 194 -23 215 -77 158z m-2 -173 c0
-30 -6 -34 -34 -23 -20 8 -20 23 0 45 21 24 34 15 34 -22z"/>
<path d="M6627 2628 c-20 -15 -65 -186 -94 -355 -4 -24 -1 -34 11 -39 27 -10
66 5 66 25 0 41 91 77 115 45 9 -13 20 -15 48 -10 20 4 39 12 43 17 3 6 -5 34
-19 62 -14 29 -44 93 -67 142 -22 50 -44 97 -49 105 -11 20 -33 23 -54 8z m51
-216 c2 -14 -2 -22 -12 -22 -19 0 -29 17 -22 36 8 22 30 12 34 -14z"/>
<path d="M6374 2555 c-4 -9 -4 -45 -1 -80 4 -36 2 -67 -3 -70 -5 -3 -20 14
-34 38 -14 23 -38 55 -54 70 -26 25 -35 27 -66 21 l-37 -6 7 -102 c4 -55 8
-108 10 -116 1 -8 3 -41 3 -73 1 -63 11 -74 57 -63 l26 7 -7 94 c-9 120 2 123
68 20 62 -95 65 -97 110 -84 l37 10 -6 67 c-4 37 -14 114 -23 172 l-17 105
-32 3 c-23 2 -34 -2 -38 -13z"/>
<path d="M4384 2528 c-91 -61 -117 -171 -58 -245 42 -52 87 -74 149 -71 45 3
52 7 81 44 28 37 53 119 40 131 -9 9 -129 31 -142 26 -16 -6 -28 -39 -19 -54
4 -5 18 -14 31 -19 24 -10 32 -34 14 -45 -16 -10 -80 23 -91 49 -17 37 9 106
49 129 30 17 34 18 64 3 26 -14 38 -14 60 -5 37 15 35 32 -5 63 -50 38 -110
36 -173 -6z"/>
<path d="M4784 2502 c-18 -13 -214 -291 -214 -305 0 -3 18 -8 41 -12 32 -6 43
-3 53 11 24 33 138 14 150 -24 4 -11 17 -23 29 -26 48 -13 49 -11 44 67 -5 82
-33 241 -47 275 -9 22 -35 29 -56 14z m11 -183 c8 -35 -5 -50 -36 -42 -23 6
-24 26 -3 58 19 30 30 25 39 -16z"/>
<path d="M5930 2499 c-30 -4 -81 -11 -112 -14 -58 -6 -58 -7 -58 -40 0 -33 2
-34 43 -37 l42 -3 5 -140 5 -140 35 0 35 0 3 137 c3 149 5 155 65 167 23 5 33
13 35 29 4 25 -14 53 -32 51 -6 -1 -36 -5 -66 -10z"/>
<path d="M6056 2501 c-6 -10 10 -289 19 -329 5 -21 10 -23 38 -17 46 10 47 11
41 63 -3 26 -9 101 -12 167 l-7 120 -37 3 c-20 2 -39 -1 -42 -7z"/>
<path d="M4945 2491 c-2 -4 -7 -84 -11 -178 -7 -168 -7 -171 15 -182 40 -22
60 1 63 72 l3 62 61 5 c65 5 87 17 110 61 22 43 17 75 -16 113 -32 36 -25 34
-182 50 -21 2 -40 1 -43 -3z m173 -93 c30 -25 -1 -58 -55 -58 -49 0 -73 47
-35 69 18 11 69 5 90 -11z"/>
<path d="M5568 2483 c-96 -3 -109 -6 -119 -24 -16 -30 12 -67 53 -71 l33 -3 0
-130 c1 -72 4 -136 9 -143 4 -6 25 -12 46 -12 l39 0 3 148 3 147 35 5 c33 5
35 7 35 45 0 28 -4 40 -15 40 -8 1 -63 -1 -122 -2z"/>
<path d="M5277 2441 c-9 -16 -17 -34 -17 -40 0 -7 -13 -40 -29 -74 -57 -124
-91 -200 -91 -207 0 -4 14 -10 32 -12 26 -4 37 1 62 28 28 30 35 33 74 27 32
-4 48 -13 63 -34 22 -32 75 -41 85 -15 3 8 -6 54 -20 102 -15 49 -33 114 -42
144 -25 87 -36 105 -69 108 -24 2 -34 -3 -48 -27z m59 -165 c7 -31 -1 -46 -27
-46 -25 0 -34 22 -19 49 15 28 38 26 46 -3z"/>
<path d="M3820 2021 c0 -20 23 -45 33 -34 4 3 10 -2 13 -12 6 -16 -1 -37 -37
-107 -5 -10 -9 -28 -9 -40 1 -69 59 -53 84 23 9 26 16 55 16 63 0 8 8 15 18
15 49 1 82 14 82 32 0 11 -8 22 -17 25 -10 3 -27 10 -38 14 -11 5 -32 11 -47
14 -16 4 -28 11 -28 16 0 6 -16 10 -35 10 -28 0 -35 -4 -35 -19z"/>
<path d="M6885 1998 c-35 -19 -65 -51 -65 -69 0 -10 12 -30 28 -44 24 -23 32
-25 83 -19 44 5 57 3 62 -8 12 -32 -28 -53 -70 -37 -31 12 -60 -9 -50 -35 8
-21 83 -21 126 0 37 18 51 41 51 83 0 44 -31 62 -95 55 -39 -5 -54 -3 -64 10
-17 21 3 30 59 24 38 -3 40 -2 40 24 0 26 -3 28 -42 28 -24 0 -52 -6 -63 -12z"/>
<path d="M4044 1933 c-3 -10 -10 -26 -15 -35 -5 -10 -9 -28 -9 -41 0 -13 -4
-27 -9 -32 -16 -19 -20 -70 -6 -89 23 -30 48 -9 69 58 6 18 7 18 26 1 13 -12
20 -31 20 -57 0 -32 4 -40 26 -48 14 -6 30 -10 36 -10 10 0 7 44 -7 86 -5 15
-1 23 17 31 32 14 55 59 42 81 -14 23 -89 58 -141 67 -37 6 -44 4 -49 -12z
m110 -49 c20 -8 21 -40 1 -48 -25 -9 -65 11 -65 34 0 21 30 27 64 14z"/>
<path d="M6707 1933 c-4 -3 -7 -20 -7 -37 0 -20 -9 -40 -25 -55 -26 -24 -55
-23 -55 4 0 19 -35 55 -55 55 -11 0 -15 -12 -15 -44 0 -25 5 -48 10 -51 6 -3
10 -16 10 -29 0 -12 7 -31 15 -42 8 -10 15 -29 15 -42 0 -21 4 -23 38 -20 33
3 37 6 34 28 -2 14 -8 27 -13 28 -21 8 -7 40 22 52 38 16 62 4 67 -31 4 -30
10 -35 45 -43 26 -6 27 -5 27 32 0 21 -4 42 -9 48 -6 5 -17 35 -25 68 -9 32
-21 65 -27 72 -12 15 -41 19 -52 7z"/>
<path d="M4282 1855 c-7 -14 -12 -37 -12 -50 0 -14 -9 -34 -20 -45 -23 -23
-27 -70 -7 -70 8 0 19 -11 25 -25 6 -14 18 -25 26 -25 8 0 21 -8 28 -18 10
-14 25 -18 58 -17 25 0 45 6 45 11 0 6 8 18 18 28 9 10 17 26 17 37 0 11 7 33
15 49 17 32 22 80 11 98 -20 33 -58 -10 -72 -84 -3 -19 -10 -34 -14 -34 -4 0
-12 -11 -18 -25 -8 -17 -17 -23 -27 -18 -31 11 -47 80 -25 108 14 18 19 82 7
94 -19 19 -43 12 -55 -14z"/>
<path d="M6498 1854 c-3 -3 -36 -7 -74 -10 -37 -2 -73 -9 -81 -15 -15 -13 -18
-75 -4 -83 5 -3 12 -23 15 -43 14 -75 27 -113 40 -113 19 0 39 44 31 69 -8 28
8 48 45 56 16 3 34 13 40 20 23 28 11 143 -12 119z m-40 -56 c16 -16 15 -23
-4 -42 -21 -22 -41 -20 -47 5 -11 42 22 66 51 37z"/>
<path d="M4523 1814 c-9 -4 -9 -11 -1 -30 9 -19 18 -24 37 -22 25 3 26 1 24
-47 -1 -27 -6 -51 -12 -53 -15 -5 -13 -63 3 -84 7 -10 20 -18 28 -18 16 0 38
60 38 103 0 49 20 76 59 79 28 2 36 7 36 23 0 16 -9 21 -45 26 -25 4 -61 12
-80 18 -36 11 -66 13 -87 5z"/>
<path d="M6218 1802 c-22 -14 -28 -26 -33 -74 -9 -72 -27 -76 -47 -10 -15 45
-17 47 -55 50 -57 4 -66 -11 -49 -79 8 -30 17 -76 21 -102 6 -42 10 -48 29
-45 22 3 24 18 11 108 l-6 35 26 -29 c14 -15 29 -41 32 -57 5 -25 10 -29 39
-29 l34 0 1 53 c0 28 4 61 9 72 7 18 9 18 15 3 4 -10 12 -39 19 -65 9 -37 17
-48 32 -48 20 0 21 9 9 95 -12 87 -34 142 -55 139 -3 0 -17 -8 -32 -17z"/>
<path d="M4772 1758 c-6 -6 -12 -35 -12 -62 0 -28 -5 -68 -9 -90 -13 -52 -5
-66 35 -66 34 0 34 0 28 38 -8 53 10 68 61 46 36 -15 37 -16 31 -55 -6 -35 -4
-41 16 -48 13 -5 27 -5 33 0 14 14 34 202 22 217 -17 22 -36 13 -54 -25 -31
-66 -96 -54 -91 16 3 32 0 36 -22 39 -14 2 -31 -3 -38 -10z"/>
<path d="M5923 1748 c-7 -8 -9 -37 -4 -81 4 -37 4 -72 0 -78 -4 -6 -24 -12
-45 -13 l-39 -1 2 68 c1 38 -2 67 -7 67 -6 0 -10 7 -10 16 0 11 -8 14 -32 12
-33 -3 -33 -3 -30 -53 3 -62 19 -124 37 -149 11 -15 30 -20 83 -22 69 -3 69
-3 86 29 14 25 17 52 14 122 -3 82 -5 90 -24 93 -11 2 -26 -3 -31 -10z"/>
<path d="M5129 1724 c-16 -19 -3 -32 36 -36 l30 -3 5 -90 c5 -88 6 -90 30 -90
24 0 25 2 28 77 2 45 8 80 15 85 25 19 85 31 96 20 6 -6 11 -49 11 -99 l0 -88
31 0 c30 0 31 1 26 33 -11 69 31 77 67 13 29 -53 51 -66 72 -44 16 16 16 20
-11 58 l-28 40 22 24 c56 60 -5 121 -109 110 -30 -3 -63 -10 -72 -15 -12 -6
-26 -6 -40 2 -35 19 -194 20 -209 3z m379 -51 c-3 -18 -58 -37 -71 -24 -4 4
-5 15 -1 24 9 24 77 24 72 0z"/>
<path d="M5636 1633 c5 -117 18 -148 51 -127 14 8 18 27 19 86 1 41 -1 90 -5
109 -6 29 -11 34 -39 37 l-31 3 5 -108z"/>
</g>
</svg>
